<?xml version="1.0" encoding="UTF-8" standalone="no"?>
<svg
   xmlns:dc="http://purl.org/dc/elements/1.1/"
   xmlns:cc="http://creativecommons.org/ns#"
   xmlns:rdf="http://www.w3.org/1999/02/22-rdf-syntax-ns#"
   xmlns:svg="http://www.w3.org/2000/svg"
   xmlns="http://www.w3.org/2000/svg"
   version="1.1"
   id="svg2"
   viewBox="0 0 522.34498 211.27556"
   height="211.27556"
   width="522.34497">
  <defs
     id="defs4">
    <marker
       style="overflow:visible"
       id="marker7236"
       refX="0"
       refY="0"
       orient="auto">
      <path
         transform="matrix(0.2,0,0,0.2,1.48,0.2)"
         style="fill:#5db97a;fill-opacity:1;fill-rule:evenodd;stroke:#5db97a;stroke-width:1pt;stroke-opacity:1"
         d="m -2.5,-1 c 0,2.76 -2.24,5 -5,5 -2.76,0 -5,-2.24 -5,-5 0,-2.76 2.24,-5 5,-5 2.76,0 5,2.24 5,5 z"
         id="path7238" />
    </marker>
    <marker
       style="overflow:visible"
       id="DotS"
       refX="0"
       refY="0"
       orient="auto">
      <path
         transform="matrix(0.2,0,0,0.2,1.48,0.2)"
         style="fill-rule:evenodd;stroke:#000000;stroke-width:1pt"
         d="m -2.5,-1 c 0,2.76 -2.24,5 -5,5 -2.76,0 -5,-2.24 -5,-5 0,-2.76 2.24,-5 5,-5 2.76,0 5,2.24 5,5 z"
         id="path5105" />
    </marker>
    <marker
       orient="auto"
       refY="0"
       refX="0"
       id="marker6990"
       style="overflow:visible">
      <path
         id="path6992"
         d="M 0,0 5,-5 -12.5,0 5,5 0,0 Z"
         style="fill:#000000;fill-opacity:1;fill-rule:evenodd;stroke:#000000;stroke-width:1pt;stroke-opacity:1"
         transform="matrix(0.8,0,0,0.8,10,0)" />
    </marker>
    <marker
       style="overflow:visible"
       id="marker6928"
       refX="0"
       refY="0"
       orient="auto">
      <path
         transform="matrix(0.8,0,0,0.8,10,0)"
         style="fill:#000000;fill-opacity:1;fill-rule:evenodd;stroke:#000000;stroke-width:1pt;stroke-opacity:1"
         d="M 0,0 5,-5 -12.5,0 5,5 0,0 Z"
         id="path6930" />
    </marker>
    <marker
       style="overflow:visible"
       id="Arrow1Lstart"
       refX="0"
       refY="0"
       orient="auto">
      <path
         transform="matrix(0.8,0,0,0.8,10,0)"
         style="fill:#000000;fill-opacity:1;fill-rule:evenodd;stroke:#000000;stroke-width:1pt;stroke-opacity:1"
         d="M 0,0 5,-5 -12.5,0 5,5 0,0 Z"
         id="path5038" />
    </marker>
  </defs>
  <metadata
     id="metadata7">
    <rdf:RDF>
      <cc:Work
         rdf:about="">
        <dc:format>image/svg+xml</dc:format>
        <dc:type
           rdf:resource="http://purl.org/dc/dcmitype/StillImage" />
        <dc:title></dc:title>
      </cc:Work>
    </rdf:RDF>
  </metadata>
  <g
     transform="translate(-1389.6398,-2051.3626)"
     id="layer1">
    <g
       transform="translate(2.592808,-40.620658)"
       id="g8805">
      <path
         style="font-style:normal;font-variant:normal;font-weight:900;font-stretch:normal;font-size:134.64825439px;line-height:129.99999523%;font-family:'.SF Compact Rounded';-inkscape-font-specification:'.SF Compact Rounded, Heavy';text-align:start;letter-spacing:6.75px;word-spacing:0px;writing-mode:lr-tb;text-anchor:start;fill:#4d4d4d;fill-opacity:1;stroke:none;stroke-width:1px;stroke-linecap:butt;stroke-linejoin:miter;stroke-opacity:1"
         d="m 1731.4564,2111.9898 c -1.0004,-0.05 -2.0264,0.1868 -2.9473,0.7441 -0.9554,0.5781 -1.6511,1.4157 -2.0596,2.3679 -0.3287,0.7664 -0.5511,1.5518 -0.9478,2.2938 -0.4976,0.9305 -1.128,1.44 -1.9189,2.1168 -12.6739,10.8457 -18.4245,27.2298 -17.8677,42.3334 0.038,1.0246 -0.019,1.8683 -0.8801,2.406 -1.4193,0.8861 -2.325,0.6652 -4.1228,0.7888 -1.0581,0.073 -2.0811,0.1646 -3.0747,0.2731 -0.8603,0.094 -1.5702,0.1633 -2.3029,-0.2235 -0.716,-0.3779 -0.9103,-0.9103 -1.2612,-1.6151 -4.988,-10.02 -10.4868,-17.2971 -16.6151,-22.0185 -5.8876,-4.536 -12.4093,-6.5809 -19.1562,-6.3164 -0.7678,0.03 -1.4031,0.03 -2.1504,-0.1867 -0.5259,-0.1527 -0.9339,-0.4013 -1.3992,-0.692 -0.7859,-0.491 -1.7099,-0.7776 -2.7063,-0.7776 -2.8704,0 -5.2012,2.3308 -5.2012,5.2012 0,2.8704 2.3308,5.1992 5.2012,5.1992 1.5464,0 2.933,-0.6773 3.8838,-1.7506 0.4386,-0.4951 0.7653,-0.9699 1.3348,-1.3322 0.7979,-0.5075 1.5429,-0.5367 2.4591,-0.5355 5.106,0.01 9.8708,1.6966 14.5606,5.3097 4.6835,3.6084 9.2452,9.2612 13.5481,17.1798 0.6694,1.232 1.5129,1.7914 0.8006,3.1051 -0.7756,1.4305 -1.8801,1.5445 -3.2616,2.008 -1.9369,0.65 -3.6729,1.3882 -5.2043,2.2032 -6.8773,3.5025 -9.579,8.3014 -9.2734,12.7617 0.337,4.9195 3.9371,8.4295 9.5781,8.043 3.9355,-0.2697 6.4315,-1.3645 8.8476,-2.6504 3.3685,-1.8124 6.583,-3.9436 10.9122,-4.2402 4.8539,-0.3325 8.0327,1.8236 8.3203,6.0215 l 0.2832,4.1308 -13.9043,0.9532 c -16.7872,1.216 -26.3973,10.0469 -25.4805,23.4277 0.8674,12.6594 10.8358,20.6084 24.6758,19.6602 8.1335,-0.5573 14.5894,-4.4265 16.9668,-10.125 l 1.3125,-0.09 c 1.6417,5.6868 6.515,8.5157 13.0742,8.0664 8.2647,-0.5663 12.5889,-5.7393 11.9687,-14.791 l -2.2343,-32.5996 c -0.8441,-12.3197 -8.2177,-20.2881 -20.7129,-22.8501 -1.0702,-0.2194 -2.0219,-0.4522 -2.6741,-1.4029 -1.0397,-1.5154 -0.9504,-2.8239 -0.9405,-4.7042 0.07,-13.1817 5.4318,-27.2771 16.4733,-36.5411 0.5195,-0.4359 1.0674,-0.7597 1.7492,-0.8168 0.7243,-0.061 1.2187,0.029 1.9451,0.052 0.9662,0.03 1.9512,-0.209 2.8396,-0.7465 2.4559,-1.4861 3.2439,-4.6848 1.7578,-7.1406 -0.743,-1.2278 -1.9164,-2.0376 -3.209,-2.3555 -0.3231,-0.079 -0.6529,-0.1278 -0.9863,-0.1445 z m -21.7227,95.2676 0.4316,6.2969 c 0.2337,3.4109 -2.9883,6.3993 -7.2519,6.6914 -4.1323,0.2831 -7.3934,-2.1287 -7.6406,-5.7364 -0.2561,-3.7387 2.7867,-6.4526 7.6406,-6.7851 z"
         id="path8666" />
      <g
         id="g8769"
         style="fill:#ffffff"
         transform="translate(-30.986543,44.619736)">
        <path
           d="m 1464.9998,2157.4257 8.5989,-35.8673 3.5164,0.8431 c 6.7131,1.6094 11.2643,-1.018 12.7205,-7.0918 1.4561,-6.0738 -1.4091,-10.4792 -8.1222,-12.0886 l -4.2836,-1.027 1.0269,-4.2837 c 1.0117,-4.2197 3.3488,-4.9439 6.7373,-4.1316 1.4705,0.3526 2.9743,0.8483 4.4448,1.2009 3.7721,0.9043 7.1804,-1.1858 8.1921,-5.4055 0.7663,-3.1967 -0.2522,-6.2805 -3.0197,-8.837 -2.4939,-2.2881 -6.3711,-4.1642 -11.5498,-5.4058 -16.3033,-3.9085 -26.1323,0.4284 -30.1635,17.2432 l -0.8583,3.5803 -1.0869,-0.2606 c -6.7131,-1.6094 -11.295,1.1459 -12.7512,7.2196 -1.4561,6.0738 1.4397,10.3514 8.1529,11.9608 l 1.0868,0.2605 -8.5988,35.8673 c -2.2072,9.2066 1.2644,15.3124 9.6398,17.3204 8.3755,2.0079 14.1104,-1.8907 16.3176,-11.0973 z"
           style="font-style:normal;font-variant:normal;font-weight:900;font-stretch:normal;font-size:134.64825439px;line-height:129.99999523%;font-family:'.SF Compact Rounded';-inkscape-font-specification:'.SF Compact Rounded, Heavy';text-align:start;letter-spacing:6.75px;word-spacing:0px;writing-mode:lr-tb;text-anchor:start;fill:#ffffff;fill-opacity:1;stroke:none;stroke-width:1px;stroke-linecap:butt;stroke-linejoin:miter;stroke-opacity:1"
           id="path6827" />
        <path
           d="m 1503.7021,2180.0819 c 8.5421,1.5322 14.0422,-2.6913 15.7138,-12.0099 l 11.7591,-65.5546 c 1.6716,-9.3188 -2.0176,-15.1906 -10.5598,-16.723 -8.5422,-1.5322 -14.0422,2.6913 -15.7138,12.0099 l -11.7591,65.5546 c -1.6716,9.3188 2.0176,15.1906 10.5598,16.723 z"
           style="font-style:normal;font-variant:normal;font-weight:900;font-stretch:normal;font-size:134.64825439px;line-height:129.99999523%;font-family:'.SF Compact Rounded';-inkscape-font-specification:'.SF Compact Rounded, Heavy';text-align:start;letter-spacing:6.75px;word-spacing:0px;writing-mode:lr-tb;text-anchor:start;fill:#ffffff;fill-opacity:1;stroke:none;stroke-width:1px;stroke-linecap:butt;stroke-linejoin:miter;stroke-opacity:1"
           id="path6829" />
        <path
           d="m 1576.921,2116.391 c -22.0923,-2.3992 -37.4042,9.4951 -39.7111,30.7377 l -0.504,4.6407 c -2.4276,22.3538 10.045,36.6043 32.1373,39.0034 21.9616,2.3851 37.1371,-8.8627 39.5789,-31.3472 l 0.5111,-4.7061 c 2.2856,-21.0465 -10.0506,-35.9435 -32.0122,-38.3285 z m -2.1381,19.0785 c 5.4904,0.5964 7.7544,5.9344 6.6897,15.7387 l -0.7027,6.4708 c -1.0435,9.6082 -4.429,14.5973 -9.9194,14.0011 -5.3596,-0.582 -7.7913,-6.2029 -6.7479,-15.8111 l 0.7027,-6.4708 c 1.0648,-9.8043 4.618,-14.5106 9.9776,-13.9287 z"
           style="font-style:normal;font-variant:normal;font-weight:900;font-stretch:normal;font-size:134.64825439px;line-height:129.99999523%;font-family:'.SF Compact Rounded';-inkscape-font-specification:'.SF Compact Rounded, Heavy';text-align:start;letter-spacing:6.75px;word-spacing:0px;writing-mode:lr-tb;text-anchor:start;fill:#ffffff;fill-opacity:1;stroke:none;stroke-width:1px;stroke-linecap:butt;stroke-linejoin:miter;stroke-opacity:1"
           id="path6831" />
        <path
           d="m 1654.5999,2121.339 c -22.218,-0.4306 -36.4148,12.7748 -36.8288,34.1383 l -0.091,4.6671 c -0.4357,22.481 13.2515,35.5692 35.4695,35.9998 22.0866,0.428 36.2049,-12.1213 36.6431,-34.7337 l 0.092,-4.7329 c 0.4102,-21.1663 -13.1985,-34.9105 -35.2851,-35.3386 z m -0.4377,19.193 c 5.5216,0.1071 8.2501,5.2233 8.059,15.0834 l -0.1261,6.5077 c -0.1873,9.6629 -3.117,14.9325 -8.6387,14.8255 -5.3902,-0.1044 -8.3107,-5.4875 -8.1234,-15.1504 l 0.1261,-6.5076 c 0.1911,-9.8601 3.3129,-14.863 8.7031,-14.7586 z"
           style="font-style:normal;font-variant:normal;font-weight:900;font-stretch:normal;font-size:134.64825439px;line-height:129.99999523%;font-family:'.SF Compact Rounded';-inkscape-font-specification:'.SF Compact Rounded, Heavy';text-align:start;letter-spacing:6.75px;word-spacing:0px;writing-mode:lr-tb;text-anchor:start;fill:#ffffff;fill-opacity:1;stroke:none;stroke-width:1px;stroke-linecap:butt;stroke-linejoin:miter;stroke-opacity:1"
           id="path6833" />
        <path
           d="m 1854.4218,2163.1763 -5.0683,-31.6814 c -2.6277,-16.4249 -12.2825,-24.335 -26.8247,-22.0086 -9.5433,1.5267 -16.947,8.1043 -18.1547,15.9545 l -1.2984,0.2077 c -1.7423,-7.9775 -6.8969,-11.4807 -14.6225,-10.2448 -7.8554,1.2567 -11.9585,7.2397 -10.5876,15.8092 l 6.8755,42.9775 c 1.4955,9.3486 6.9799,13.6646 15.5494,12.2937 8.5047,-1.3604 12.3039,-7.1617 10.8084,-16.5103 l -3.957,-24.7348 c -1.0802,-6.7518 1.6856,-11.5221 6.8143,-12.3426 5.1936,-0.8308 9.0498,2.8801 10.0988,9.4371 l 3.9882,24.9296 c 1.4955,9.3485 6.915,13.6751 15.4845,12.304 8.5047,-1.3604 12.3896,-7.0423 10.8941,-16.3908 z"
           style="font-style:normal;font-variant:normal;font-weight:900;font-stretch:normal;font-size:134.64825439px;line-height:129.99999523%;font-family:'.SF Compact Rounded';-inkscape-font-specification:'.SF Compact Rounded, Heavy';text-align:start;letter-spacing:6.75px;word-spacing:0px;writing-mode:lr-tb;text-anchor:start;fill:#ffffff;fill-opacity:1;stroke:none;stroke-width:1px;stroke-linecap:butt;stroke-linejoin:miter;stroke-opacity:1"
           id="path6837" />
        <path
           d="m 1876.4044,2152.5099 c 3.333,13.6691 12.6006,18.6504 27.9944,14.8969 6.0042,-1.464 10.5955,-4.0047 13.3096,-7.3056 2.3449,-2.8727 3.2097,-6.2641 2.3375,-9.8412 -1.0123,-4.1518 -4.2214,-6.2116 -7.7984,-5.3393 -2.1079,0.514 -3.0365,1.1464 -4.7611,1.5668 -3.3215,0.81 -5.1457,-0.8431 -6.2514,-5.3782 l -6.043,-24.7834 2.9383,-0.7165 c 6.7068,-1.6353 9.555,-6.0517 8.0754,-12.1198 -1.4796,-6.0681 -6.041,-8.6779 -12.7478,-7.0426 l -3.3215,0.8099 -1.3083,-5.3655 c -2.1493,-8.8147 -7.6609,-12.5463 -15.7091,-10.5839 -8.0482,1.9624 -11.2875,7.8277 -9.1382,16.6424 l 1.3083,5.3655 -1.9802,0.4828 c -6.7068,1.6353 -9.555,6.0518 -8.0754,12.1199 1.4796,6.0681 6.041,8.6779 12.7478,7.0426 l 1.1498,-0.2804 7.2733,29.8296 z"
           style="font-style:normal;font-variant:normal;font-weight:900;font-stretch:normal;font-size:134.64825439px;line-height:129.99999523%;font-family:'.SF Compact Rounded';-inkscape-font-specification:'.SF Compact Rounded, Heavy';text-align:start;letter-spacing:6.75px;word-spacing:0px;writing-mode:lr-tb;text-anchor:start;fill:#ffffff;fill-opacity:1;stroke:none;stroke-width:1px;stroke-linecap:butt;stroke-linejoin:miter;stroke-opacity:1"
           id="path6839" />
        <path
           style="color:#000000;font-style:normal;font-variant:normal;font-weight:normal;font-stretch:normal;font-size:medium;line-height:normal;font-family:sans-serif;text-indent:0;text-align:start;text-decoration:none;text-decoration-line:none;text-decoration-style:solid;text-decoration-color:#000000;letter-spacing:normal;word-spacing:normal;text-transform:none;direction:ltr;block-progression:tb;writing-mode:lr-tb;baseline-shift:baseline;text-anchor:start;white-space:normal;clip-rule:nonzero;display:inline;overflow:visible;visibility:visible;opacity:1;isolation:auto;mix-blend-mode:normal;color-interpolation:sRGB;color-interpolation-filters:linearRGB;solid-color:#000000;solid-opacity:1;fill:#ffffff;fill-opacity:1;fill-rule:evenodd;stroke:none;stroke-width:11.39999962;stroke-linecap:round;stroke-linejoin:round;stroke-miterlimit:4;stroke-dasharray:none;stroke-dashoffset:0;stroke-opacity:1;color-rendering:auto;image-rendering:auto;shape-rendering:auto;text-rendering:auto;enable-background:accumulate"
           d="m 1876.4329,2189.4628 c -0.3387,-2e-4 -0.6766,0.034 -1.0085,0.1008 -0.1145,0.023 -0.2282,0.051 -0.3408,0.082 -129.2731,35.6479 -263.3923,29.3882 -400.3504,0.8572 -0.5455,-0.1381 -1.1102,-0.1845 -1.671,-0.1373 -0.1638,0.013 -0.3268,0.035 -0.4886,0.064 -0.025,0.01 -0.051,0.011 -0.076,0.016 -0.1321,0.026 -0.2632,0.056 -0.3929,0.092 -0.075,0.022 -0.1501,0.046 -0.2244,0.071 -0.08,0.026 -0.1595,0.053 -0.2382,0.084 -0.096,0.038 -0.1902,0.079 -0.2834,0.1235 -0.057,0.025 -0.1129,0.051 -0.1687,0.078 -0.1262,0.064 -0.2498,0.1328 -0.3703,0.2069 -0.017,0.01 -0.034,0.02 -0.05,0.029 -0.1383,0.088 -0.2724,0.1825 -0.4016,0.2835 l -0.01,0.01 c -3.3066,2.5728 -2.2478,7.8177 1.798,8.9062 l 0,0 c 147.1362,49.6709 281.9442,52.7804 405.7442,-0.9129 5.4666,-1.5772 4.5963,-9.576 -1.0816,-9.9408 -0.1302,-0.01 -0.2607,-0.012 -0.3912,-0.011 z"
           id="path6841" />
        <path
           style="color:#000000;font-style:normal;font-variant:normal;font-weight:normal;font-stretch:normal;font-size:medium;line-height:normal;font-family:sans-serif;text-indent:0;text-align:start;text-decoration:none;text-decoration-line:none;text-decoration-style:solid;text-decoration-color:#000000;letter-spacing:normal;word-spacing:normal;text-transform:none;direction:ltr;block-progression:tb;writing-mode:lr-tb;baseline-shift:baseline;text-anchor:start;white-space:normal;clip-rule:nonzero;display:inline;overflow:visible;visibility:visible;opacity:1;isolation:auto;mix-blend-mode:normal;color-interpolation:sRGB;color-interpolation-filters:linearRGB;solid-color:#000000;solid-opacity:1;fill:#ffffff;fill-opacity:1;fill-rule:evenodd;stroke:none;stroke-width:7.19999981;stroke-linecap:round;stroke-linejoin:miter;stroke-miterlimit:4;stroke-dasharray:none;stroke-dashoffset:0;stroke-opacity:1;color-rendering:auto;image-rendering:auto;shape-rendering:auto;text-rendering:auto;enable-background:accumulate"
           d="m 1573.0862,2092.7673 c -4.4026,-0.023 -4.9886,6.3648 -0.6554,7.1438 29.1594,10.9149 59.3597,14.6303 91.7611,6.7094 4.8577,-0.293 4.3162,-7.6059 -0.5316,-7.1804 -31.4694,2.3299 -60.9836,-0.9968 -89.8586,-6.5958 -0.2354,-0.049 -0.4751,-0.075 -0.7156,-0.077 z"
           id="path6843" />
      </g>
    </g>
  </g>
</svg>
