<?xml version="1.0" encoding="UTF-8" standalone="no"?>
<svg
   xmlns:dc="http://purl.org/dc/elements/1.1/"
   xmlns:cc="http://creativecommons.org/ns#"
   xmlns:rdf="http://www.w3.org/1999/02/22-rdf-syntax-ns#"
   xmlns:svg="http://www.w3.org/2000/svg"
   xmlns="http://www.w3.org/2000/svg"
   xmlns:xlink="http://www.w3.org/1999/xlink"
   version="1.1"
   id="svg2"
   viewBox="0 0 512.00001 516.00001"
   height="516"
   width="512">
  <defs
     id="defs4">
    <linearGradient
       id="linearGradient8919">
      <stop
         style="stop-color:#4acc7e;stop-opacity:1"
         offset="0"
         id="stop8923" />
      <stop
         style="stop-color:#5fd38d;stop-opacity:1;"
         offset="1"
         id="stop8921" />
    </linearGradient>
    <marker
       style="overflow:visible"
       id="marker7236"
       refX="0"
       refY="0"
       orient="auto">
      <path
         transform="matrix(0.2,0,0,0.2,1.48,0.2)"
         style="fill:#5db97a;fill-opacity:1;fill-rule:evenodd;stroke:#5db97a;stroke-width:1pt;stroke-opacity:1"
         d="m -2.5,-1 c 0,2.76 -2.24,5 -5,5 -2.76,0 -5,-2.24 -5,-5 0,-2.76 2.24,-5 5,-5 2.76,0 5,2.24 5,5 z"
         id="path7238" />
    </marker>
    <marker
       style="overflow:visible"
       id="DotS"
       refX="0"
       refY="0"
       orient="auto">
      <path
         transform="matrix(0.2,0,0,0.2,1.48,0.2)"
         style="fill-rule:evenodd;stroke:#000000;stroke-width:1pt"
         d="m -2.5,-1 c 0,2.76 -2.24,5 -5,5 -2.76,0 -5,-2.24 -5,-5 0,-2.76 2.24,-5 5,-5 2.76,0 5,2.24 5,5 z"
         id="path5105" />
    </marker>
    <marker
       orient="auto"
       refY="0"
       refX="0"
       id="marker6990"
       style="overflow:visible">
      <path
         id="path6992"
         d="M 0,0 5,-5 -12.5,0 5,5 0,0 Z"
         style="fill:#000000;fill-opacity:1;fill-rule:evenodd;stroke:#000000;stroke-width:1pt;stroke-opacity:1"
         transform="matrix(0.8,0,0,0.8,10,0)" />
    </marker>
    <marker
       style="overflow:visible"
       id="marker6928"
       refX="0"
       refY="0"
       orient="auto">
      <path
         transform="matrix(0.8,0,0,0.8,10,0)"
         style="fill:#000000;fill-opacity:1;fill-rule:evenodd;stroke:#000000;stroke-width:1pt;stroke-opacity:1"
         d="M 0,0 5,-5 -12.5,0 5,5 0,0 Z"
         id="path6930" />
    </marker>
    <marker
       style="overflow:visible"
       id="Arrow1Lstart"
       refX="0"
       refY="0"
       orient="auto">
      <path
         transform="matrix(0.8,0,0,0.8,10,0)"
         style="fill:#000000;fill-opacity:1;fill-rule:evenodd;stroke:#000000;stroke-width:1pt;stroke-opacity:1"
         d="M 0,0 5,-5 -12.5,0 5,5 0,0 Z"
         id="path5038" />
    </marker>
    <linearGradient
       gradientUnits="userSpaceOnUse"
       y2="2535.6401"
       x2="1256.4847"
       y1="3046.5454"
       x1="1256.4847"
       id="linearGradient8925"
       xlink:href="#linearGradient8919" />
  </defs>
  <metadata
     id="metadata7">
    <rdf:RDF>
      <cc:Work
         rdf:about="">
        <dc:format>image/svg+xml</dc:format>
        <dc:type
           rdf:resource="http://purl.org/dc/dcmitype/StillImage" />
        <dc:title></dc:title>
      </cc:Work>
    </rdf:RDF>
  </metadata>
  <g
     transform="translate(-1256.4847,-2538.7595)"
     id="layer1">
    <rect
       y="2542.7595"
       x="1256.4847"
       height="512"
       width="512"
       id="rect8929"
       style="opacity:1;fill:#333333;fill-opacity:1;fill-rule:evenodd;stroke:none;stroke-width:5.19999981;stroke-linecap:round;stroke-linejoin:round;stroke-miterlimit:4;stroke-dasharray:none;stroke-dashoffset:0;stroke-opacity:1"
       rx="120"
       ry="120" />
    <rect
       ry="120"
       rx="120"
       style="opacity:1;fill:url(#linearGradient8925);fill-opacity:1;fill-rule:evenodd;stroke:none;stroke-width:5.19999981;stroke-linecap:round;stroke-linejoin:round;stroke-miterlimit:4;stroke-dasharray:none;stroke-dashoffset:0;stroke-opacity:1"
       id="rect8791"
       width="512"
       height="512"
       x="1256.4847"
       y="2538.7595" />
    <path
       style="font-style:normal;font-variant:normal;font-weight:900;font-stretch:normal;font-size:134.64825439px;line-height:129.99999523%;font-family:'.SF Compact Rounded';-inkscape-font-specification:'.SF Compact Rounded, Heavy';text-align:start;letter-spacing:6.75px;word-spacing:0px;writing-mode:lr-tb;text-anchor:start;fill:#4d4d4d;fill-opacity:1;stroke:none;stroke-width:1px;stroke-linecap:butt;stroke-linejoin:miter;stroke-opacity:1"
       d="m 1589.0209,2590.7788 c -2.6951,-0.1351 -5.4589,0.5032 -7.9398,2.0045 -2.5738,1.5574 -4.4479,3.8137 -5.5484,6.3789 -0.8855,2.0646 -1.4847,4.1805 -2.5534,6.1794 -1.3404,2.5067 -3.0387,3.8792 -5.1693,5.7025 -34.1425,29.2175 -49.6341,73.355 -48.1342,114.0429 0.1025,2.7601 -0.051,5.033 -2.371,6.4815 -3.8235,2.3871 -6.2632,1.792 -11.1065,2.125 -2.8504,0.1966 -5.6062,0.4434 -8.283,0.7357 -2.3176,0.2533 -4.2299,0.44 -6.2038,-0.6021 -1.9288,-1.018 -2.4523,-2.4523 -3.3976,-4.3509 -13.4372,-26.9931 -28.2506,-46.5971 -44.7597,-59.3162 -15.8607,-12.2197 -33.4297,-17.7284 -51.6053,-17.0159 -2.0685,0.081 -3.7799,0.081 -5.7931,-0.5028 -1.4166,-0.4115 -2.5159,-1.0812 -3.7693,-1.8643 -2.1171,-1.3227 -4.6064,-2.0949 -7.2906,-2.0949 -7.7327,0 -14.0116,6.2791 -14.0116,14.0117 0,7.7327 6.2789,14.0063 14.0116,14.0063 4.1658,0 7.9013,-1.8246 10.4626,-4.7161 1.1816,-1.3337 2.0617,-2.6128 3.596,-3.5888 2.1495,-1.3671 4.1564,-1.4458 6.6245,-1.4425 13.7552,0.026 26.5912,4.5705 39.2252,14.3038 12.617,9.7208 24.9059,24.949 36.4975,46.2811 1.8033,3.3189 4.0756,4.8259 2.1567,8.365 -2.0893,3.8536 -5.0648,4.1607 -8.7864,5.4093 -5.2179,1.7511 -9.8945,3.7398 -14.0201,5.9353 -18.5268,9.4354 -25.8049,22.3633 -24.9817,34.379 0.9078,13.2527 10.6062,22.7084 25.8027,21.6672 10.6018,-0.7265 17.3259,-3.6759 23.8347,-7.14 9.0744,-4.8824 17.734,-10.6236 29.3966,-11.4227 13.0761,-0.8957 21.6394,4.9126 22.4142,16.2215 l 0.7629,11.128 -37.457,2.5679 c -45.2235,3.2757 -71.1123,27.0654 -68.6425,63.1124 2.3367,34.1033 29.1908,55.5174 66.4746,52.9629 21.9111,-1.5012 39.3028,-11.9246 45.7073,-27.2759 l 3.5357,-0.2424 c 4.4226,15.3198 17.5511,22.9407 35.2209,21.7302 22.2645,-1.5256 33.9136,-15.4613 32.2428,-39.8458 l -6.019,-87.8208 c -2.274,-33.1882 -22.1378,-54.6546 -55.799,-61.5564 -2.883,-0.591 -5.4468,-1.2181 -7.2038,-3.7792 -2.8008,-4.0824 -2.5602,-7.6074 -2.5337,-12.6729 0.1886,-35.5104 14.6329,-73.4824 44.3779,-98.4389 1.3994,-1.1741 2.8755,-2.0464 4.7122,-2.2004 1.9512,-0.1642 3.2831,0.078 5.24,0.1397 2.6027,0.081 5.2564,-0.5631 7.6496,-2.0111 6.616,-4.0033 8.7389,-12.6204 4.7353,-19.2361 -2.0016,-3.3076 -5.1626,-5.4892 -8.6448,-6.3455 -0.8704,-0.2128 -1.7588,-0.3443 -2.6569,-0.3893 z m -58.5194,256.6436 1.1627,16.9632 c 0.6297,9.1888 -8.0502,17.2393 -19.536,18.0262 -11.1321,0.7626 -19.9172,-5.7346 -20.5832,-15.4534 -0.6899,-10.0719 7.5073,-17.3828 20.5832,-18.2785 z"
       id="path8803" />
  </g>
</svg>
