<?xml version="1.0" encoding="UTF-8" standalone="no"?>
<svg
   xmlns:dc="http://purl.org/dc/elements/1.1/"
   xmlns:cc="http://creativecommons.org/ns#"
   xmlns:rdf="http://www.w3.org/1999/02/22-rdf-syntax-ns#"
   xmlns:svg="http://www.w3.org/2000/svg"
   xmlns="http://www.w3.org/2000/svg"
   xmlns:sodipodi="http://sodipodi.sourceforge.net/DTD/sodipodi-0.dtd"
   xmlns:inkscape="http://www.inkscape.org/namespaces/inkscape"
   version="1.1"
   id="svg2"
   viewBox="0 0 90.662096 126.27245"
   height="126.27245"
   width="90.662094"
   inkscape:version="0.91 r13725"
   sodipodi:docname="flooant-logo-a.svg">
  <sodipodi:namedview
     pagecolor="#ffffff"
     bordercolor="#666666"
     borderopacity="1"
     objecttolerance="10"
     gridtolerance="10"
     guidetolerance="10"
     inkscape:pageopacity="0"
     inkscape:pageshadow="2"
     inkscape:window-width="1111"
     inkscape:window-height="729"
     id="namedview27"
     showgrid="false"
     inkscape:zoom="0.59347752"
     inkscape:cx="3.0594654"
     inkscape:cy="-124.49375"
     inkscape:window-x="0"
     inkscape:window-y="0"
     inkscape:window-maximized="0"
     inkscape:current-layer="svg2"
     fit-margin-top="0"
     fit-margin-left="0"
     fit-margin-right="0"
     fit-margin-bottom="0" />
  <defs
     id="defs4">
    <marker
       style="overflow:visible"
       id="marker7236"
       refX="0"
       refY="0"
       orient="auto">
      <path
         transform="matrix(0.2,0,0,0.2,1.48,0.2)"
         style="fill:#5db97a;fill-opacity:1;fill-rule:evenodd;stroke:#5db97a;stroke-width:1pt;stroke-opacity:1"
         d="m -2.5,-1 c 0,2.76 -2.24,5 -5,5 -2.76,0 -5,-2.24 -5,-5 0,-2.76 2.24,-5 5,-5 2.76,0 5,2.24 5,5 z"
         id="path7238"
         inkscape:connector-curvature="0" />
    </marker>
    <marker
       style="overflow:visible"
       id="DotS"
       refX="0"
       refY="0"
       orient="auto">
      <path
         transform="matrix(0.2,0,0,0.2,1.48,0.2)"
         style="fill-rule:evenodd;stroke:#000000;stroke-width:1pt"
         d="m -2.5,-1 c 0,2.76 -2.24,5 -5,5 -2.76,0 -5,-2.24 -5,-5 0,-2.76 2.24,-5 5,-5 2.76,0 5,2.24 5,5 z"
         id="path5105"
         inkscape:connector-curvature="0" />
    </marker>
    <marker
       orient="auto"
       refY="0"
       refX="0"
       id="marker6990"
       style="overflow:visible">
      <path
         id="path6992"
         d="M 0,0 5,-5 -12.5,0 5,5 0,0 Z"
         style="fill:#000000;fill-opacity:1;fill-rule:evenodd;stroke:#000000;stroke-width:1pt;stroke-opacity:1"
         transform="matrix(0.8,0,0,0.8,10,0)"
         inkscape:connector-curvature="0" />
    </marker>
    <marker
       style="overflow:visible"
       id="marker6928"
       refX="0"
       refY="0"
       orient="auto">
      <path
         transform="matrix(0.8,0,0,0.8,10,0)"
         style="fill:#000000;fill-opacity:1;fill-rule:evenodd;stroke:#000000;stroke-width:1pt;stroke-opacity:1"
         d="M 0,0 5,-5 -12.5,0 5,5 0,0 Z"
         id="path6930"
         inkscape:connector-curvature="0" />
    </marker>
    <marker
       style="overflow:visible"
       id="Arrow1Lstart"
       refX="0"
       refY="0"
       orient="auto">
      <path
         transform="matrix(0.8,0,0,0.8,10,0)"
         style="fill:#000000;fill-opacity:1;fill-rule:evenodd;stroke:#000000;stroke-width:1pt;stroke-opacity:1"
         d="M 0,0 5,-5 -12.5,0 5,5 0,0 Z"
         id="path5038"
         inkscape:connector-curvature="0" />
    </marker>
  </defs>
  <metadata
     id="metadata7">
    <rdf:RDF>
      <cc:Work
         rdf:about="">
        <dc:format>image/svg+xml</dc:format>
        <dc:type
           rdf:resource="http://purl.org/dc/dcmitype/StillImage" />
        <dc:title></dc:title>
      </cc:Work>
    </rdf:RDF>
  </metadata>
  <path
     style="font-style:normal;font-variant:normal;font-weight:900;font-stretch:normal;font-size:134.64825439px;line-height:129.99999523%;font-family:'.SF Compact Rounded';-inkscape-font-specification:'.SF Compact Rounded, Heavy';text-align:start;letter-spacing:6.75px;word-spacing:0px;writing-mode:lr-tb;text-anchor:start;fill:#ffffff;fill-opacity:1;stroke:none;stroke-width:1px;stroke-linecap:butt;stroke-linejoin:miter;stroke-opacity:1"
     d="m 84.6114,0.00651551 c -1.0004,-0.05 -2.0264,0.1868 -2.9473,0.7441 -0.9554,0.57809999 -1.6511,1.41569999 -2.0596,2.36789999 -0.3287,0.7664 -0.5511,1.5518 -0.9478,2.2938 -0.4976,0.9305 -1.128,1.44 -1.9189,2.1168 C 64.0639,18.374816 58.3133,34.758916 58.8701,49.862516 c 0.038,1.0246 -0.019,1.8683 -0.8801,2.406 -1.4193,0.8861 -2.325,0.6652 -4.1228,0.7888 -1.0581,0.073 -2.0811,0.1646 -3.0747,0.2731 -0.8603,0.094 -1.5702,0.1633 -2.3029,-0.2235 -0.716,-0.3779 -0.9103,-0.9103 -1.2612,-1.6151 -4.988,-10.02 -10.4868,-17.2971 -16.6151,-22.0185 -5.8876,-4.536 -12.4093,-6.5809 -19.1562,-6.3164 -0.7678,0.03 -1.4031,0.03 -2.1504,-0.1867 -0.5259,-0.1527 -0.9339,-0.4013 -1.3992,-0.692 -0.7859,-0.491 -1.7099,-0.7776 -2.7063,-0.7776 -2.8704,0 -5.2012,2.3308 -5.2012,5.2012 0,2.8704 2.3308,5.1992 5.2012,5.1992 1.5464,0 2.933,-0.6773 3.8838,-1.7506 0.4386,-0.4951 0.7653,-0.9699 1.3348,-1.3322 0.7979,-0.5075 1.5429,-0.5367 2.4591,-0.5355 5.106,0.01 9.8708,1.6966 14.5606,5.3097 4.6835,3.6084 9.2452,9.2612 13.5481,17.1798 0.6694,1.232 1.5129,1.7914 0.8006,3.1051 -0.7756,1.4305 -1.8801,1.5445 -3.2616,2.008 -1.9369,0.65 -3.6729,1.3882 -5.2043,2.2032 -6.8773,3.5025 -9.579,8.3014 -9.2734,12.7617 0.337,4.9195 3.9371,8.4295 9.5781,8.043 3.9355,-0.2697 6.4315,-1.3645 8.8476,-2.6504 3.3685,-1.8124 6.583,-3.9436 10.9122,-4.2402 4.8539,-0.3325 8.0327,1.8236 8.3203,6.0215 l 0.2832,4.1308 -13.9043,0.9532 c -16.7872,1.216 -26.3973,10.0469 -25.4805,23.427704 0.8674,12.6594 10.8358,20.6084 24.6758,19.6602 8.1335,-0.5573 14.5894,-4.4265 16.9668,-10.125 l 1.3125,-0.09 c 1.6417,5.6868 6.515,8.5157 13.0742,8.0664 8.2647,-0.5663 12.5889,-5.7393 11.9687,-14.791 L 88.3692,76.656816 c -0.8441,-12.3197 -8.2177,-20.2881 -20.7129,-22.8501 -1.0702,-0.2194 -2.0219,-0.4522 -2.6741,-1.4029 -1.0397,-1.5154 -0.9504,-2.8239 -0.9405,-4.7042 0.07,-13.1817 5.4318,-27.2771 16.4733,-36.5411 0.5195,-0.4359 1.0674,-0.7597 1.7492,-0.8168 0.7243,-0.061 1.2187,0.029 1.9451,0.052 0.9662,0.03 1.9512,-0.209 2.8396,-0.7465005 2.4559,-1.4861 3.2439,-4.6848 1.7578,-7.1406 -0.743,-1.2278 -1.9164,-2.03759999 -3.209,-2.35549999 -0.3231,-0.079 -0.6529,-0.1278 -0.9863,-0.1445 z M 62.8887,95.274116 l 0.4316,6.296904 c 0.2337,3.4109 -2.9883,6.3993 -7.2519,6.6914 -4.1323,0.2831 -7.3934,-2.1287 -7.6406,-5.7364 -0.2561,-3.738704 2.7867,-6.452604 7.6406,-6.785104 z"
     id="path8666"
     inkscape:connector-curvature="0" />
</svg>
