<?xml version="1.0" standalone="no"?>
<!DOCTYPE svg PUBLIC "-//W3C//DTD SVG 20010904//EN"
 "http://www.w3.org/TR/2001/REC-SVG-20010904/DTD/svg10.dtd">
<svg version="1.0" xmlns="http://www.w3.org/2000/svg"
 width="512.000000pt" height="512.000000pt" viewBox="0 0 512.000000 512.000000"
 preserveAspectRatio="xMidYMid meet">
<metadata>
Created by potrace 1.11, written by Peter Selinger 2001-2013
</metadata>
<g transform="translate(0.000000,512.000000) scale(0.100000,-0.100000)"
fill="#000000" stroke="none">
<path d="M0 2560 l0 -2560 2560 0 2560 0 0 2560 0 2560 -2560 0 -2560 0 0
-2560z m3947 2119 c38 -14 83 -57 99 -96 29 -66 12 -145 -42 -195 -40 -37 -74
-48 -150 -48 -63 0 -65 -1 -126 -53 -323 -274 -541 -783 -526 -1227 4 -134 20
-162 106 -185 228 -60 355 -122 467 -226 127 -119 204 -270 234 -459 6 -36 30
-335 52 -665 35 -510 40 -611 30 -674 -19 -127 -70 -217 -155 -276 -81 -56
-162 -77 -286 -77 -119 0 -187 19 -266 73 -46 31 -116 127 -128 174 -11 43
-40 31 -80 -34 -105 -171 -311 -274 -571 -288 -250 -13 -456 59 -610 212 -129
129 -196 297 -197 500 -1 203 53 346 182 476 89 90 182 147 316 195 130 47
277 69 579 89 138 9 251 18 252 19 2 1 -1 46 -6 100 -12 127 -38 173 -117 212
-47 23 -70 28 -133 27 -104 0 -170 -21 -351 -113 -193 -97 -246 -114 -370
-114 -111 0 -147 12 -213 73 -59 54 -89 124 -90 210 -2 207 155 368 478 487
94 35 125 60 125 101 0 29 -111 220 -200 345 -224 314 -497 488 -767 488 l-83
0 -59 -54 c-71 -66 -123 -79 -196 -51 -172 65 -136 317 48 333 43 3 63 -1 105
-22 42 -21 65 -26 129 -26 340 0 624 -146 878 -451 93 -111 170 -228 270 -408
55 -99 89 -150 105 -158 30 -13 271 6 307 26 29 15 31 25 37 201 15 385 125
721 336 1022 37 54 122 150 200 228 104 104 139 145 149 178 17 50 63 105 106
127 35 17 92 19 132 4z"/>
<path d="M3000 1458 c-63 -4 -138 -16 -167 -24 -207 -64 -219 -313 -18 -389
87 -34 222 -6 293 59 59 53 72 124 55 299 -5 60 -8 67 -27 66 -12 -1 -73 -6
-136 -11z"/>
</g>
</svg>
