<?xml version="1.0" standalone="no"?>
<!DOCTYPE svg PUBLIC "-//W3C//DTD SVG 20010904//EN"
 "http://www.w3.org/TR/2001/REC-SVG-20010904/DTD/svg10.dtd">
<svg version="1.0" xmlns="http://www.w3.org/2000/svg"
 width="1008.000000pt" height="1008.000000pt" viewBox="0 0 1008.000000 1008.000000"
 preserveAspectRatio="xMidYMid meet">
<metadata>
Created by potrace 1.11, written by Peter Selinger 2001-2013
</metadata>
<g transform="translate(0.000000,1008.000000) scale(0.100000,-0.100000)"
fill="#000000" stroke="none">
<path d="M8040 10060 c-83 -27 -120 -49 -178 -107 -45 -44 -107 -151 -116
-198 -5 -26 -51 -125 -58 -125 -4 0 -8 -5 -8 -11 0 -6 -6 -17 -12 -24 -7 -8
-18 -20 -24 -27 -6 -7 -44 -42 -85 -78 -90 -80 -228 -210 -283 -268 -76 -81
-121 -130 -136 -149 -8 -10 -35 -43 -60 -73 -25 -30 -49 -60 -55 -68 -5 -7
-17 -21 -25 -30 -22 -25 -138 -187 -165 -231 -5 -9 -27 -41 -47 -72 -21 -31
-38 -59 -38 -62 0 -6 -16 -33 -77 -132 -18 -29 -166 -320 -165 -322 1 -2 -10
-29 -24 -60 -14 -32 -33 -76 -41 -98 -8 -22 -21 -54 -29 -71 -17 -39 -123
-358 -128 -387 -3 -12 -5 -22 -6 -22 -2 0 -4 -11 -13 -50 -3 -11 -12 -47 -20
-80 -9 -33 -18 -71 -20 -85 -3 -14 -14 -70 -25 -125 -22 -112 -40 -219 -47
-282 -3 -24 -7 -62 -10 -85 -19 -170 -25 -318 -26 -626 0 -109 -8 -143 -42
-180 -43 -47 -137 -79 -237 -82 -83 -2 -175 -8 -218 -14 -63 -9 -200 -18 -247
-16 -64 2 -117 35 -152 93 -17 29 -31 54 -31 57 0 3 -12 28 -28 55 -16 28 -49
91 -74 140 -25 50 -48 92 -52 93 -5 2 -8 8 -8 12 0 5 -20 43 -45 83 -25 41
-45 77 -45 80 0 10 -94 162 -102 165 -5 2 -8 8 -8 13 0 17 -214 333 -257 379
-13 14 -23 28 -23 32 0 3 -6 13 -13 20 -7 7 -28 33 -47 58 -19 25 -37 47 -40
50 -3 3 -30 34 -60 70 -101 121 -306 330 -315 322 -3 -3 -5 -1 -5 5 0 28 -346
290 -485 368 -27 15 -61 35 -75 44 -14 8 -27 16 -30 16 -3 1 -49 22 -103 48
-55 26 -103 47 -108 47 -5 0 -17 4 -27 10 -18 10 -154 58 -183 65 -9 2 -63 15
-120 28 -93 23 -166 36 -224 42 -107 12 -214 17 -343 17 -175 0 -204 7 -325
71 -45 24 -85 44 -90 44 -4 1 -26 5 -50 9 -156 28 -310 -35 -409 -168 -78
-103 -98 -259 -50 -386 88 -230 352 -332 577 -221 30 14 83 58 131 107 69 71
154 135 154 117 0 -3 9 -1 20 5 39 21 316 9 444 -20 22 -5 44 -7 48 -4 4 3 8
1 8 -5 0 -5 8 -10 18 -9 22 0 38 -4 142 -37 109 -35 326 -133 357 -161 7 -7
33 -22 58 -34 25 -12 45 -26 45 -31 0 -5 5 -9 11 -9 10 0 172 -117 232 -168
98 -84 287 -270 334 -329 12 -16 36 -44 53 -63 53 -61 91 -107 125 -154 11
-16 36 -49 56 -75 61 -77 271 -394 274 -411 0 -3 8 -16 17 -30 33 -51 94 -156
117 -202 13 -27 28 -48 33 -48 4 0 8 -9 8 -19 0 -10 7 -22 16 -25 8 -3 12 -10
9 -16 -3 -5 -3 -10 2 -10 12 0 37 -60 38 -95 2 -37 -11 -69 -48 -118 -33 -43
-90 -74 -192 -106 -100 -31 -199 -69 -283 -108 -41 -18 -80 -33 -87 -33 -7 0
-15 -4 -17 -8 -1 -4 -41 -27 -88 -51 -47 -24 -92 -50 -101 -57 -8 -8 -19 -14
-23 -14 -4 0 -34 -19 -68 -42 -33 -24 -67 -47 -76 -53 -76 -51 -239 -218 -295
-303 -106 -159 -149 -292 -158 -488 -7 -164 72 -372 186 -488 70 -72 91 -87
170 -125 135 -66 173 -75 345 -75 85 0 235 9 235 14 0 1 38 10 85 21 47 10 95
21 106 24 41 10 156 55 224 89 38 19 71 32 74 28 3 -3 6 0 6 6 0 6 16 16 35
22 19 6 35 16 35 21 0 5 9 9 20 9 11 0 20 3 20 8 0 4 10 12 23 18 12 6 92 47
177 91 139 71 194 95 295 131 28 10 101 30 117 32 4 1 22 5 39 10 71 21 292
31 359 16 14 -3 36 -8 50 -10 14 -3 35 -8 46 -10 39 -8 138 -57 178 -89 61
-48 92 -86 125 -152 42 -85 56 -149 66 -310 16 -253 16 -235 -8 -236 -81 -3
-289 -17 -367 -24 -30 -3 -95 -7 -145 -10 -49 -3 -117 -7 -150 -10 -64 -4
-188 -13 -295 -20 -157 -11 -357 -30 -410 -40 -8 -2 -37 -6 -64 -9 -27 -4 -52
-9 -56 -11 -3 -2 -24 -6 -46 -9 -22 -4 -51 -9 -64 -12 -14 -3 -34 -7 -45 -9
-44 -10 -241 -66 -260 -75 -11 -5 -49 -19 -85 -31 -167 -56 -450 -215 -580
-325 -141 -120 -279 -281 -352 -409 -31 -56 -99 -200 -104 -220 -1 -5 -14 -46
-28 -90 -15 -44 -28 -87 -29 -95 -2 -8 -6 -21 -10 -27 -5 -7 -6 -13 -4 -13 2
0 -4 -48 -14 -107 -12 -81 -16 -158 -14 -304 1 -108 5 -201 9 -207 4 -6 9 -31
11 -54 2 -24 9 -64 15 -89 6 -26 13 -53 14 -60 10 -47 46 -168 66 -214 79
-191 167 -339 265 -449 6 -6 24 -28 42 -48 70 -82 245 -224 354 -287 109 -64
293 -147 348 -157 14 -3 29 -8 35 -12 6 -3 16 -7 21 -8 6 -1 30 -7 55 -14 92
-23 175 -39 295 -56 112 -15 515 -9 611 10 12 2 37 7 55 10 111 19 227 48 321
82 70 25 145 56 179 74 102 53 133 71 189 108 35 24 67 46 70 50 3 4 22 20 43
36 111 82 258 269 313 397 14 35 17 36 69 38 56 2 59 0 70 -58 5 -28 70 -154
107 -210 44 -65 194 -211 218 -211 5 0 10 -3 10 -8 0 -19 183 -98 295 -126
128 -33 402 -39 530 -13 17 4 44 9 60 12 50 8 187 51 240 75 184 85 333 232
419 414 25 54 63 164 71 206 3 14 7 36 10 50 21 96 26 351 11 550 -4 58 -9
130 -11 160 -1 30 -6 96 -9 145 -4 50 -9 117 -12 150 -2 33 -6 94 -9 135 -2
41 -7 107 -10 145 -6 82 -14 200 -20 305 -3 41 -7 107 -10 145 -8 101 -13 177
-20 291 -3 55 -7 116 -10 135 -2 19 -7 82 -10 141 -3 59 -7 131 -10 160 -2 29
-7 89 -10 133 -3 44 -8 118 -11 165 -3 47 -7 112 -10 145 -2 33 -6 80 -8 105
-3 25 -7 72 -10 105 -7 81 -14 124 -37 230 -11 50 -22 99 -24 110 -8 37 -38
130 -45 140 -4 6 -10 23 -14 40 -13 53 -126 287 -153 318 -9 9 -13 17 -9 17 4
0 2 6 -4 13 -6 6 -37 48 -69 92 -57 77 -157 193 -194 224 -11 9 -33 29 -50 44
-18 16 -68 56 -112 88 -44 33 -88 67 -98 75 -9 8 -19 14 -22 14 -3 0 -35 19
-72 41 -64 40 -264 134 -328 155 -5 2 -50 17 -100 34 -49 17 -97 33 -105 35
-8 1 -42 10 -75 18 -33 9 -71 18 -85 21 -129 26 -194 52 -233 92 -24 24 -58
74 -62 94 -1 3 -7 19 -14 35 -7 17 -16 53 -19 80 -14 117 -1 492 23 667 3 24
8 61 11 83 4 38 7 54 19 115 3 14 8 41 11 60 5 31 16 82 30 145 3 11 7 31 10
45 3 14 10 43 16 65 6 22 12 45 14 50 1 6 9 36 19 69 9 32 18 64 20 70 2 10 6
21 22 64 3 9 7 20 8 25 2 4 3 8 5 10 1 1 3 10 5 20 4 21 62 173 76 199 5 10 9
22 9 27 0 13 129 290 140 301 3 3 19 32 35 65 53 106 262 435 296 465 3 3 32
39 64 80 33 41 64 80 70 87 120 135 212 232 222 232 6 1 15 10 18 21 3 11 10
20 15 20 5 0 22 12 38 28 76 71 123 112 132 112 6 0 10 4 10 8 0 5 18 17 40
27 33 15 66 18 167 18 166 0 236 18 325 87 25 19 56 51 69 70 13 19 27 37 30
40 3 3 14 23 23 45 10 22 21 47 25 55 3 8 8 56 9 105 2 105 -18 170 -81 257
-35 48 -104 108 -124 109 -4 0 -15 7 -23 14 -45 41 -209 54 -300 25z m-1595
-7637 c2 -26 6 -83 9 -126 30 -384 29 -428 -15 -524 -39 -83 -134 -188 -203
-225 -12 -6 -23 -14 -26 -18 -10 -13 -136 -62 -195 -76 -23 -5 -120 -15 -180
-18 -32 -1 -98 8 -165 24 -44 10 -63 17 -110 42 -30 15 -63 34 -74 41 -33 22
-96 85 -96 96 0 6 -4 11 -9 11 -4 0 -23 27 -40 60 -18 33 -29 60 -25 60 3 0 2
6 -4 13 -30 37 -31 200 -1 289 37 112 143 232 232 264 9 3 17 10 17 15 0 5 8
9 18 9 10 0 22 4 27 9 9 8 72 31 100 37 6 1 21 4 35 7 14 3 36 8 50 11 14 4
52 8 85 11 33 2 94 7 135 10 145 11 216 15 315 21 55 3 102 8 104 10 8 8 12
-5 16 -53z"/>
</g>
</svg>
